# xmcd
#
# Track frame offsets:
#	150
#	16927
#	36087
#	54117
#	77187
#	98505
#	118125
#	138645
#	163932
#	178795
#	198327
#	217050
#	235910
#	251332
#	264480
#
# Disc length: 3815 seconds
#
# Revision: 1
# Processed by: cddbd v1.5.2PL0 Copyright (c) Steve Scherf et al.
# Submitted via: audiograbber 1.83.01
#
DISCID=cd0ee50f
DTITLE=Music Maestro - MM6221
DYEAR=1900
DGENRE=Karaoke
TTITLE0=Sugar Ray - Fly
TTITLE1=Gary Barlow - So Help Me Girl
TTITLE2=Elton John - Something About The Way
TTITLE3=Boyz II Men - 4 Seasons Of Loneliness
TTITLE4=Milestone - I Care About You
TTITLE5=Leann Rimes - How Do I Live
TTITLE6=Amy Grant - Takes A Little Time
TTITLE7=Chicago - The Only One
TTITLE8=Smash Mouth - Walking On The Sun
TTITLE9=Oasis - Don't Go Away
TTITLE10=Shawn Colvin - You And Mona Lisa
TTITLE11=Robyn - Show Me Love
TTITLE12=Blues Traveler - Most Precarious
TTITLE13=Toad The Wet Sprocket - Whatever I Fear
TTITLE14=Mariah Carey - Butterfly
EXTD=
EXTT0=
EXTT1=
EXTT2=
EXTT3=
EXTT4=
EXTT5=
EXTT6=
EXTT7=
EXTT8=
EXTT9=
EXTT10=
EXTT11=
EXTT12=
EXTT13=
EXTT14=
PLAYORDER=
